# xmcd
#
# Track frame offsets:
#	150
#	15849
#	32113
#	51339
#	71352
#	88974
#	101007
#	117330
#	135421
#	161071
#	181363
#	199989
#	225575
#	241626
#
# Disc length: 3441 seconds
#
# Revision: 3847052139
# Processed by: cddbd v1.5.2PL0 Copyright (c) Steve Scherf et al.
# Submitted via: EZCDAudioConverter 8.2.1.1
#
DISCID=b40d6f0e
DTITLE=Various Artist - Tonight I Celebrate My Love
DYEAR=2004
DGENRE=Ballad, Neo Soul, Contemporary R&B, Soul
TTITLE0=Peabo Bryson and Roberta Flack - Tonight I Celebrate My Love
TTITLE1=Olivia Newton-John - I Honestly Love You
TTITLE2=Chris De Burgh - The Lady In Red
TTITLE3=Styx - Babe
TTITLE4=Air Supply - All Out Of Love
TTITLE5=Joe Cocker - You Are So Beautiful
TTITLE6=The Commodores - Three Times A Lady
TTITLE7=Elton John - Your Song
TTITLE8=Peaches and Herb - Reunited
TTITLE9=Quincy Jones (Featuring James Ingram) - Just Once
TTITLE10=Lionel Richie - Hello
TTITLE11=Kool and The Gang - Cherish
TTITLE12=Linda Ronstadt and Aaron Neville - Don't Know Much
TTITLE13=Vanessa Williams - Save The Best For Last
EXTD=
EXTT0=
EXTT1=
EXTT2=
EXTT3=
EXTT4=
EXTT5=
EXTT6=
EXTT7=
EXTT8=
EXTT9=
EXTT10=
EXTT11=
EXTT12=
EXTT13=
PLAYORDER=
